<svg width="46" height="110" viewBox="0 0 46 110" fill="none" xmlns="http://www.w3.org/2000/svg">
<g clip-path="url(#clip0_2056_886)">
<path d="M29.3178 34.2769C26.6636 32.0964 24.407 30.228 22.1295 28.3803C17.8082 24.8722 13.5532 21.208 8.45754 18.8681C6.39628 17.9218 5.70919 16.601 4.98374 14.632C3.341 10.1637 1.59713 6.00384 0.327583 2.11092C-0.310676 0.155799 -0.1328 0.0275373 1.89707 0.0275373C9.85962 0.0206043 17.8222 0.0518031 25.7882 -0.000194927C27.2391 -0.0105945 27.8216 0.377657 27.8948 1.93066C28.275 9.94529 28.3064 14.1294 28.4528 18.83C28.7946 22.716 29.0597 29.8397 29.3178 34.2769Z" fill="#0B8494"/>
<path d="M7.86486 63.2781C6.05123 63.1533 4.31433 62.6784 2.70299 61.8637C1.21371 61.108 0.512675 59.7214 0.634747 58.1441C0.805647 55.9533 1.46483 53.8491 2.41699 51.8455C2.8425 50.9511 3.31683 50.6668 4.04926 51.5508C4.30735 51.8628 4.56893 52.1921 4.8933 52.4244C6.34071 53.4609 6.97549 55.7869 9.48667 55.1421C11.2619 54.6846 13.1558 54.7504 14.7113 53.4747C15.9634 52.4486 17.4318 51.7033 18.9803 51.1799C20.1208 50.7951 21.1602 50.8991 21.8752 52.0361C22.5937 53.1835 21.9903 53.9531 21.1881 54.7435C18.2095 57.6727 15.1438 60.4841 11.3701 62.401C10.2714 62.9592 9.13789 63.3855 7.86835 63.2781H7.86486Z" fill="#0B8494"/>
<path d="M10.7039 69.7605C9.07168 69.5074 7.31734 69.133 5.72343 68.2387C4.54109 67.5731 3.54708 65.1465 3.87492 63.8674C3.997 63.389 4.32485 63.3647 4.66316 63.4826C10.6307 65.5209 14.3835 61.5899 18.3805 58.4111C19.8698 57.2255 21.1847 55.832 22.5832 54.5355C23.6644 53.5337 25.4153 53.5267 26.5139 54.5147C27.5603 55.4576 27.766 56.9066 26.6569 58.0644C22.4577 62.46 17.9829 66.547 12.535 69.4173C12.0188 69.6912 11.4503 69.816 10.7039 69.764V69.7605Z" fill="#0B8494"/>
<path d="M10.4737 70.4399C11.7677 70.5821 12.8349 70.1973 13.8708 69.6114C17.6899 67.4552 20.9649 64.6058 24.1736 61.6696C25.7536 60.2241 27.0789 60.0611 28.2961 61.1358C29.4052 62.1133 29.5413 63.6525 28.2787 65.1985C25.6768 68.3877 22.5553 71.0812 19.5349 73.8649C18.9385 74.4126 18.2688 74.884 17.6689 75.4248C16.0123 76.9223 14.3346 77.3383 12.1374 76.3053C9.81103 75.2099 9.21463 73.2548 8.91817 71.1367C8.71588 69.7016 10.0168 70.745 10.4772 70.4399H10.4737Z" fill="#0B8494"/>
<path d="M13.0233 81.3803C13.1454 80.7667 13.3198 79.8065 13.5325 78.8532C13.6371 78.3956 13.8359 77.9242 14.3731 77.8618C16.94 77.5637 18.4816 75.6397 20.3162 74.1873C21.1777 73.5078 21.945 72.7036 22.8343 72.0692C24.0341 71.2199 25.3386 71.1887 26.5628 72.0484C27.6335 72.8006 27.7591 73.9758 27.3091 75.0054C25.4223 79.2969 22.9355 83.1725 18.5339 85.3218C15.8135 86.6494 12.978 84.729 13.0198 81.3838L13.0233 81.3803Z" fill="#0B8494"/>
<path d="M42.3344 67.2785C43.9248 71.057 45.3059 74.572 45.5501 78.4303C45.6233 79.5742 45.8605 80.7113 45.9791 81.8552C46.0942 82.9576 45.7873 83.9317 44.8316 84.5834C44.005 85.145 43.0424 85.6823 42.0902 85.1554C41.2253 84.677 41.6543 83.6786 41.731 82.9264C42.1949 78.4442 42.0658 73.9515 42.0065 69.4589C41.9996 68.8419 41.8112 68.2006 42.3344 67.2785Z" fill="#0B8494"/>
<path opacity="0.5" d="M11.8723 53.8699C12.7373 53.6169 13.4871 53.2529 14.2056 52.7641C15.6496 51.7865 17.1109 50.8436 18.7885 50.3028C20.4243 49.7759 21.788 50.0775 22.653 51.6687C22.9983 52.303 23.4342 52.6532 24.1178 52.8022C26.9534 53.4227 28.5019 55.9533 27.4033 58.6225C27.1801 59.1598 27.2638 59.4649 27.8462 59.8427C30.5527 61.6037 30.8352 63.6178 28.7042 66.1796C27.8183 67.2438 26.786 68.1867 25.7885 69.1573C25.07 69.8576 25.0246 70.277 26.0396 70.8074C28.5229 72.1004 29.0111 73.7366 27.8183 76.2429C26.4616 79.0924 24.6968 81.6819 22.2693 83.7133C20.7487 84.9855 20.2534 86.5454 20.0581 88.3896C19.7093 91.7175 19.2036 95.028 18.8409 98.3525C18.4363 102.069 17.9096 105.774 17.505 109.49C17.4737 109.764 17.6934 110.003 17.9689 110.003H39.5476C39.8162 110.003 40.0255 109.778 40.008 109.515C39.5163 101.736 39.5302 93.9708 40.4789 86.1884C41.1625 80.5899 41.7624 74.9499 41.0753 69.2786C40.3987 63.7149 39.9871 58.1026 40.7928 52.5526C41.6543 46.6179 40.2278 41.4424 37.1167 36.4159C35.7983 34.284 33.6812 32.6062 33.1685 29.982C32.9976 29.1154 32.5582 28.4394 31.5049 28.6301C30.5318 28.8069 30.2074 29.5141 30.204 30.4084C30.197 31.8505 30.1133 33.2926 30.4062 34.7243C30.483 35.0952 30.6295 35.5805 30.1447 35.7989C29.768 35.9687 29.5169 35.6152 29.2553 35.4002C27.9578 34.336 26.6604 33.2683 25.363 32.2006C20.0371 27.8259 14.809 23.3263 8.78217 19.8806C7.76025 19.2947 6.71393 18.8198 5.51065 18.8337C4.40155 18.8475 3.62726 19.4368 3.21222 20.4075C2.80415 21.3642 3.34127 22.061 4.05626 22.6503C4.77125 23.2396 5.47578 23.8393 6.19774 24.4217C10.0238 27.5173 13.8603 30.6025 17.6794 33.7051C18.0596 34.0136 18.7606 34.4227 18.3735 34.9149C17.8922 35.525 17.4806 34.7485 17.1249 34.4712C14.8474 32.6825 12.6013 30.8556 10.3377 29.053C8.72636 27.7704 7.08014 27.7531 6.01638 28.9906C5.02237 30.1519 5.2421 31.9753 6.56047 33.3411C8.61475 35.4661 10.7946 37.4559 13.107 39.3035C13.379 39.5219 13.7348 39.6987 13.951 40.0142C14.2161 40.4024 13.7976 40.8912 13.3721 40.6971C12.8175 40.444 12.3885 40.0142 11.9386 39.6398C10.9132 38.7905 9.92964 37.8892 8.90075 37.0468C7.99045 36.3015 6.96156 36.3362 5.95011 36.8042C4.97005 37.2548 4.45037 38.0695 4.39806 39.1371C4.34225 40.3123 4.91076 41.2656 5.68853 42.0733C7.05573 43.4911 8.47873 44.8535 9.85291 46.2643C9.90871 46.3198 9.97149 46.3753 10.0343 46.4307C10.4807 46.8155 9.92964 47.5088 9.45879 47.1518C8.259 46.247 7.36265 45.0996 6.32679 44.1186C5.23861 43.089 4.17135 42.264 2.68557 43.3629C1.51717 44.2295 1.3114 45.6508 2.12055 47.2696C2.95762 48.944 4.41201 50.1781 5.43392 51.6929C7.09409 54.1542 9.1728 54.6603 11.8793 53.8699H11.8723Z" fill="#0B8494"/>
</g>
<defs>
<clipPath id="clip0_2056_886">
<rect width="46" height="110" fill="white"/>
</clipPath>
</defs>
</svg>
