<svg width="19" height="19" viewBox="0 0 19 19" fill="none" xmlns="http://www.w3.org/2000/svg">
<mask id="path-1-inside-1_2162_154" fill="white">
<path d="M8.3409 18.1647L8.10741 18.5592C7.75953 19.1469 6.89048 19.1469 6.5426 18.5592L6.30911 18.1647C5.9349 17.5325 5.7478 17.2164 5.44975 17.0401C5.1517 16.8638 4.76293 16.8514 3.98538 16.8265C3.25632 16.8032 2.76632 16.7396 2.34735 16.566C1.46524 16.2006 0.764414 15.4998 0.399034 14.6177C0.125 13.9561 0.125 13.1174 0.125 11.44V10.72C0.125 8.36313 0.125 7.18469 0.655497 6.31899C0.952338 5.83459 1.35961 5.42732 1.84401 5.13047C2.7097 4.59998 3.88814 4.59998 6.24502 4.59998H8.40502C10.7619 4.59998 11.9403 4.59998 12.806 5.13047C13.2904 5.42732 13.6977 5.83459 13.9945 6.31899C14.525 7.18469 14.525 8.36313 14.525 10.72V11.44C14.525 13.1174 14.525 13.9561 14.251 14.6177C13.8856 15.4998 13.1848 16.2006 12.3027 16.566C11.8837 16.7396 11.3937 16.8032 10.6646 16.8265C9.88708 16.8514 9.49831 16.8638 9.20026 17.0401C8.90221 17.2164 8.7151 17.5325 8.3409 18.1647Z"/>
</mask>
<path d="M8.10741 18.5592L9.39824 19.3232L8.10741 18.5592ZM8.3409 18.1647L7.05007 17.4007L7.05007 17.4007L8.3409 18.1647ZM6.30911 18.1647L7.59994 17.4007L7.59993 17.4007L6.30911 18.1647ZM6.5426 18.5592L5.25177 19.3232L5.25177 19.3233L6.5426 18.5592ZM0.399034 14.6177L1.78485 14.0437H1.78485L0.399034 14.6177ZM3.98538 16.8265L4.03334 15.3273H4.03334L3.98538 16.8265ZM2.34735 16.566L1.77332 17.9518L1.77332 17.9518L2.34735 16.566ZM14.251 14.6177L15.6368 15.1917V15.1917L14.251 14.6177ZM10.6646 16.8265L10.6167 15.3273L10.6646 16.8265ZM12.3027 16.566L12.8767 17.9518L12.3027 16.566ZM12.806 5.13047L13.5898 3.85152L13.5898 3.85152L12.806 5.13047ZM13.9945 6.31899L15.2735 5.53525L15.2735 5.53525L13.9945 6.31899ZM1.84401 5.13047L1.06026 3.85152H1.06026L1.84401 5.13047ZM0.655497 6.31899L-0.623465 5.53525L-0.623465 5.53525L0.655497 6.31899ZM5.44975 17.0401L4.68607 18.3312H4.68607L5.44975 17.0401ZM9.39824 19.3232L9.63173 18.9288L7.05007 17.4007L6.81658 17.7952L9.39824 19.3232ZM5.01827 18.9288L5.25177 19.3232L7.83343 17.7952L7.59994 17.4007L5.01827 18.9288ZM6.81658 17.7952C7.04952 17.4016 7.60049 17.4016 7.83343 17.7952L5.25177 19.3233C6.18046 20.8923 8.46954 20.8923 9.39824 19.3232L6.81658 17.7952ZM6.24502 6.09998H8.40502V3.09998H6.24502V6.09998ZM13.025 10.72V11.44H16.025V10.72H13.025ZM1.625 11.44V10.72H-1.375V11.44H1.625ZM-1.375 11.44C-1.375 12.2582 -1.37581 12.947 -1.33727 13.5119C-1.2978 14.0903 -1.21213 14.6477 -0.986786 15.1917L1.78485 14.0437C1.73616 13.9261 1.68482 13.7334 1.65578 13.3077C1.62581 12.8685 1.625 12.2992 1.625 11.44H-1.375ZM4.03334 15.3273C3.33989 15.3051 3.07766 15.2449 2.92137 15.1802L1.77332 17.9518C2.45497 18.2342 3.17274 18.3013 3.93743 18.3257L4.03334 15.3273ZM-0.986786 15.1917C-0.469167 16.4414 0.523672 17.4342 1.77332 17.9518L2.92137 15.1802C2.40681 14.9671 1.99799 14.5582 1.78485 14.0437L-0.986786 15.1917ZM13.025 11.44C13.025 12.2992 13.0242 12.8685 12.9943 13.3077C12.9652 13.7334 12.9139 13.9261 12.8652 14.0437L15.6368 15.1917C15.8622 14.6477 15.9478 14.0903 15.9873 13.5119C16.0259 12.947 16.025 12.2582 16.025 11.44H13.025ZM10.7126 18.3257C11.4773 18.3013 12.1951 18.2342 12.8767 17.9518L11.7287 15.1802C11.5724 15.2449 11.3101 15.3051 10.6167 15.3273L10.7126 18.3257ZM12.8652 14.0437C12.652 14.5582 12.2432 14.9671 11.7287 15.1802L12.8767 17.9518C14.1264 17.4342 15.1192 16.4414 15.6368 15.1917L12.8652 14.0437ZM8.40502 6.09998C9.6125 6.09998 10.4128 6.10156 11.0227 6.15955C11.6104 6.21543 11.8647 6.31289 12.0223 6.40943L13.5898 3.85152C12.8816 3.41756 12.1139 3.24977 11.3067 3.17302C10.5218 3.09839 9.55441 3.09998 8.40502 3.09998V6.09998ZM16.025 10.72C16.025 9.57062 16.0266 8.60324 15.952 7.81833C15.8752 7.0111 15.7075 6.24339 15.2735 5.53525L12.7156 7.10274C12.8121 7.26029 12.9096 7.51465 12.9655 8.10229C13.0235 8.71225 13.025 9.51253 13.025 10.72H16.025ZM12.0223 6.40943C12.3048 6.58259 12.5424 6.82017 12.7156 7.10274L15.2735 5.53525C14.853 4.84901 14.276 4.27204 13.5898 3.85152L12.0223 6.40943ZM6.24502 3.09998C5.09562 3.09998 4.12824 3.09839 3.34334 3.17302C2.53611 3.24977 1.7684 3.41756 1.06026 3.85152L2.62776 6.40943C2.78531 6.31289 3.03967 6.21543 3.6273 6.15955C4.23726 6.10156 5.03753 6.09998 6.24502 6.09998V3.09998ZM1.625 10.72C1.625 9.51253 1.62658 8.71225 1.68458 8.10229C1.74045 7.51465 1.83791 7.26029 1.93446 7.10274L-0.623465 5.53525C-1.05741 6.24339 -1.2252 7.0111 -1.30195 7.81833C-1.37658 8.60324 -1.375 9.57062 -1.375 10.72H1.625ZM1.06026 3.85152C0.374025 4.27204 -0.202941 4.84901 -0.623465 5.53525L1.93446 7.10274C2.10762 6.82017 2.34519 6.58259 2.62776 6.40943L1.06026 3.85152ZM7.59993 17.4007C7.427 17.1085 7.24626 16.8002 7.06451 16.5499C6.86496 16.2752 6.60141 15.9786 6.21343 15.7491L4.68607 18.3312C4.59614 18.278 4.57517 18.2275 4.63723 18.313C4.67083 18.3592 4.7162 18.4275 4.78223 18.5346C4.84838 18.6418 4.92271 18.7673 5.01828 18.9288L7.59993 17.4007ZM3.93743 18.3257C4.35316 18.339 4.56627 18.3473 4.71576 18.3655C4.84163 18.3808 4.78524 18.3898 4.68607 18.3312L6.21343 15.7491C5.81621 15.5141 5.41642 15.4287 5.079 15.3876C4.7652 15.3493 4.39515 15.3388 4.03334 15.3273L3.93743 18.3257ZM9.63173 18.9288C9.7273 18.7673 9.80163 18.6418 9.86778 18.5346C9.93381 18.4275 9.97918 18.3592 10.0128 18.313C10.0748 18.2275 10.0539 18.278 9.96394 18.3312L8.43657 15.7491C8.0486 15.9786 7.78505 16.2752 7.58549 16.5499C7.40375 16.8002 7.223 17.1085 7.05007 17.4007L9.63173 18.9288ZM10.6167 15.3273C10.2549 15.3388 9.88481 15.3493 9.57101 15.3876C9.23359 15.4287 8.8338 15.5141 8.43657 15.7491L9.96394 18.3312C9.86476 18.3898 9.80838 18.3808 9.93425 18.3655C10.0837 18.3473 10.2968 18.339 10.7126 18.3257L10.6167 15.3273Z" fill="#F05A7E" mask="url(#path-1-inside-1_2162_154)"/>
<path d="M17.8681 10.3916L18.561 10.6786L17.8681 10.3916ZM16.0416 12.2181L16.3286 12.911H16.3286L16.0416 12.2181ZM16.5134 1.49731L16.9053 0.857833V0.857833L16.5134 1.49731ZM17.6277 2.61155L16.9882 3.00342V3.00342L17.6277 2.61155ZM6.23655 1.49731L6.62842 2.13679L6.62842 2.13679L6.23655 1.49731ZM5.12232 2.61155L4.48284 2.21967H4.48284L5.12232 2.61155ZM10.3625 1.74997H12.3875V0.249969H10.3625V1.74997ZM17.375 6.73751V7.41251H18.875V6.73751H17.375ZM17.375 7.41251C17.375 8.20906 17.3746 8.7689 17.3446 9.20812C17.3151 9.64061 17.2595 9.90108 17.1752 10.1046L18.561 10.6786C18.7336 10.2619 18.8064 9.81909 18.8412 9.31023C18.8754 8.80811 18.875 8.18853 18.875 7.41251H17.375ZM17.1752 10.1046C16.9088 10.7478 16.3977 11.2588 15.7545 11.5252L16.3286 12.911C17.3393 12.4924 18.1424 11.6893 18.561 10.6786L17.1752 10.1046ZM12.3875 1.74997C13.5068 1.74997 14.2936 1.75076 14.9037 1.80877C15.5027 1.86572 15.8534 1.97247 16.1216 2.13679L16.9053 0.857833C16.3619 0.52481 15.7544 0.382892 15.0457 0.315505C14.3481 0.249178 13.4778 0.249969 12.3875 0.249969V1.74997ZM18.875 6.73751V6.7375H17.375V6.73751H18.875ZM18.875 6.7375C18.875 5.64723 18.8758 4.77687 18.8095 4.07929C18.7421 3.37055 18.6002 2.76312 18.2672 2.21967L16.9882 3.00342C17.1525 3.27157 17.2593 3.62232 17.3162 4.22127C17.3742 4.83137 17.375 5.61819 17.375 6.7375H18.875ZM16.1216 2.13679C16.4748 2.35324 16.7717 2.65021 16.9882 3.00342L18.2672 2.21967C17.927 1.66463 17.4604 1.19796 16.9053 0.857833L16.1216 2.13679ZM10.3625 0.249969C9.27223 0.249969 8.40186 0.249178 7.70428 0.315505C6.99554 0.382892 6.38811 0.52481 5.84467 0.857833L6.62842 2.13679C6.89657 1.97247 7.24732 1.86572 7.84627 1.80877C8.45637 1.75076 9.24318 1.74997 10.3625 1.74997V0.249969ZM5.84467 0.857833C5.28963 1.19796 4.82297 1.66463 4.48284 2.21967L5.7618 3.00342C5.97825 2.65021 6.27521 2.35324 6.62842 2.13679L5.84467 0.857833ZM5.40389 4.63894C5.44869 3.77777 5.56044 3.33202 5.7618 3.00342L4.48284 2.21967C4.07931 2.87817 3.95402 3.63636 3.90592 4.56102L5.40389 4.63894ZM14.55 13.2113C15.2418 13.1883 15.8091 13.1262 16.3286 12.911L15.7545 11.5252C15.4958 11.6324 15.1542 11.6904 14.5001 11.7121L14.55 13.2113Z" fill="#F05A7E"/>
<path d="M4.18335 10.9H4.19145M7.32501 10.9H7.33311M10.4669 10.9H10.475" stroke="#F05A7E" stroke-width="2" stroke-linecap="round" stroke-linejoin="round"/>
</svg>
