<svg width="16" height="16" viewBox="0 0 16 16" fill="none" xmlns="http://www.w3.org/2000/svg">
<g clip-path="url(#clip0_2162_965)">
<path d="M8.72441 14.2585L9.36983 14.6405H9.36983L8.72441 14.2585ZM9.08581 13.6479L8.4404 13.2659L9.08581 13.6479ZM6.91412 13.6479L6.2687 14.0299H6.2687L6.91412 13.6479ZM7.27552 14.2585L7.92093 13.8764H7.92093L7.27552 14.2585ZM1.58705 10.6089L2.27996 10.3219H2.27996L1.58705 10.6089ZM5.19303 12.661L5.18011 13.4109H5.18011L5.19303 12.661ZM3.39103 12.4129L3.10402 13.1058L3.10402 13.1058L3.39103 12.4129ZM14.4129 10.6089L15.1058 10.896V10.896L14.4129 10.6089ZM10.8069 12.661L10.794 11.9111L10.8069 12.661ZM12.6089 12.4129L12.8959 13.1058H12.8959L12.6089 12.4129ZM13.075 1.82453L12.6831 2.46401L13.075 1.82453ZM14.1754 2.925L14.8149 2.53313V2.53313L14.1754 2.925ZM2.92498 1.82453L2.53311 1.18505L2.53311 1.18505L2.92498 1.82453ZM1.82451 2.925L1.18503 2.53313H1.18503L1.82451 2.925ZM6.26851 12.8066L6.64558 12.1582L6.64558 12.1582L6.26851 12.8066ZM9.36983 14.6405L9.73123 14.0299L8.4404 13.2659L8.079 13.8764L9.36983 14.6405ZM6.2687 14.0299L6.6301 14.6405L7.92093 13.8764L7.55953 13.2659L6.2687 14.0299ZM8.079 13.8764C8.06985 13.8919 8.06051 13.8995 8.05062 13.9049C8.03866 13.9114 8.02111 13.9166 7.99997 13.9166C7.97882 13.9166 7.96127 13.9114 7.94931 13.9049C7.93942 13.8995 7.93008 13.8919 7.92093 13.8764L6.6301 14.6405C7.24262 15.6753 8.75731 15.6753 9.36983 14.6405L8.079 13.8764ZM6.99998 2.08333H8.99998V0.583328H6.99998V2.08333ZM13.9166 7V7.66666H15.4166V7H13.9166ZM2.08331 7.66666V7H0.583313V7.66666H2.08331ZM0.583313 7.66666C0.583313 8.43297 0.582907 9.04526 0.616769 9.54157C0.651092 10.0446 0.723108 10.483 0.894138 10.896L2.27996 10.3219C2.19725 10.1223 2.1424 9.86613 2.11329 9.43946C2.08372 9.00605 2.08331 8.45349 2.08331 7.66666H0.583313ZM5.20595 11.9111C4.36897 11.8967 3.97358 11.8424 3.67805 11.72L3.10402 13.1058C3.68889 13.3481 4.34328 13.3964 5.18011 13.4109L5.20595 11.9111ZM0.894138 10.896C1.30857 11.8965 2.10349 12.6914 3.10402 13.1058L3.67805 11.72C3.04506 11.4578 2.54215 10.9549 2.27996 10.3219L0.894138 10.896ZM13.9166 7.66666C13.9166 8.45349 13.9162 9.00605 13.8867 9.43946C13.8576 9.86613 13.8027 10.1223 13.72 10.3219L15.1058 10.896C15.2769 10.483 15.3489 10.0446 15.3832 9.54157C15.4171 9.04526 15.4166 8.43297 15.4166 7.66666H13.9166ZM10.8198 13.4109C11.6567 13.3964 12.3111 13.3481 12.8959 13.1058L12.3219 11.72C12.0264 11.8424 11.631 11.8967 10.794 11.9111L10.8198 13.4109ZM13.72 10.3219C13.4578 10.9549 12.9549 11.4578 12.3219 11.72L12.8959 13.1058C13.8965 12.6914 14.6914 11.8965 15.1058 10.896L13.72 10.3219ZM8.99998 2.08333C10.1056 2.08333 10.8822 2.08412 11.4843 2.14136C12.0751 2.19754 12.42 2.30276 12.6831 2.46401L13.4668 1.18505C12.9284 0.855097 12.3269 0.714715 11.6262 0.648095C10.9367 0.582537 10.0766 0.583328 8.99998 0.583328V2.08333ZM15.4166 7C15.4166 5.92337 15.4174 5.06324 15.3519 4.37374C15.2853 3.67307 15.1449 3.07156 14.8149 2.53313L13.536 3.31687C13.6972 3.58001 13.8024 3.92485 13.8586 4.51572C13.9159 5.11775 13.9166 5.89433 13.9166 7H15.4166ZM12.6831 2.46401C13.0307 2.67702 13.323 2.96927 13.536 3.31687L14.8149 2.53313C14.4782 1.98369 14.0163 1.52174 13.4668 1.18505L12.6831 2.46401ZM6.99998 0.583328C5.92336 0.583328 5.06323 0.582537 4.37372 0.648095C3.67305 0.714715 3.07154 0.855097 2.53311 1.18505L3.31686 2.46401C3.57999 2.30276 3.92483 2.19754 4.5157 2.14136C5.11773 2.08412 5.89431 2.08333 6.99998 2.08333V0.583328ZM2.08331 7C2.08331 5.89433 2.0841 5.11775 2.14135 4.51572C2.19753 3.92485 2.30274 3.58001 2.46399 3.31687L1.18503 2.53313C0.855082 3.07156 0.7147 3.67307 0.64808 4.37374C0.582522 5.06324 0.583313 5.92337 0.583313 7H2.08331ZM2.53311 1.18505C1.98368 1.52174 1.52173 1.98369 1.18503 2.53313L2.46399 3.31687C2.677 2.96927 2.96926 2.67702 3.31686 2.46401L2.53311 1.18505ZM7.55953 13.2659C7.42658 13.0412 7.30091 12.8274 7.17672 12.657C7.0433 12.4739 6.87959 12.2943 6.64558 12.1582L5.89143 13.4549C5.89154 13.4549 5.89156 13.455 5.89157 13.455C5.89158 13.455 5.8918 13.4551 5.89227 13.4555C5.89311 13.4561 5.89594 13.4584 5.90101 13.4633C5.91182 13.4739 5.93209 13.496 5.96451 13.5405C6.03677 13.6396 6.12134 13.7809 6.2687 14.0299L7.55953 13.2659ZM5.18011 13.4109C5.47748 13.416 5.64931 13.4197 5.77639 13.4338C5.88956 13.4463 5.90278 13.4615 5.89144 13.4549L6.64558 12.1582C6.4091 12.0207 6.16803 11.968 5.94147 11.9429C5.72882 11.9193 5.47548 11.9157 5.20595 11.9111L5.18011 13.4109ZM9.73123 14.0299C9.8786 13.7809 9.96317 13.6396 10.0354 13.5405C10.0678 13.496 10.0881 13.4739 10.0989 13.4633C10.104 13.4584 10.1068 13.4561 10.1077 13.4555C10.1081 13.4551 10.1083 13.455 10.1084 13.455C10.1084 13.455 10.1084 13.4549 10.1085 13.4549L9.35435 12.1582C9.12034 12.2943 8.95663 12.4739 8.82321 12.657C8.69902 12.8274 8.57335 13.0412 8.4404 13.2659L9.73123 14.0299ZM10.794 11.9111C10.5245 11.9157 10.2711 11.9193 10.0585 11.9429C9.8319 11.968 9.59083 12.0207 9.35435 12.1582L10.1085 13.4549C10.0971 13.4615 10.1104 13.4463 10.2235 13.4338C10.3506 13.4197 10.5224 13.416 10.8198 13.4109L10.794 11.9111Z" fill="#59698C"/>
<path d="M5.33331 6H10.6666" stroke="#59698C" stroke-width="1.5" stroke-linecap="round"/>
<path d="M5.33331 8.33333H8.99998" stroke="#59698C" stroke-width="1.5" stroke-linecap="round"/>
</g>
<defs>
<clipPath id="clip0_2162_965">
<rect width="16" height="16" fill="white"/>
</clipPath>
</defs>
</svg>
