<svg width="19" height="18" viewBox="0 0 19 18" fill="none" xmlns="http://www.w3.org/2000/svg">
<circle cx="6.63164" cy="3.78944" r="3.03947" stroke="#F05A7E" stroke-width="1.5"/>
<path d="M12.3158 6.63155C13.8854 6.63155 15.1579 5.3591 15.1579 3.78945C15.1579 2.2198 13.8854 0.947342 12.3158 0.947342" stroke="#F05A7E" stroke-width="1.5" stroke-linecap="round"/>
<path d="M6.63184 11.171C8.35638 11.1711 9.88086 11.572 10.9482 12.1818C12.0367 12.8037 12.5125 13.549 12.5127 14.2101C12.5127 14.8712 12.0369 15.6163 10.9482 16.2384C9.88084 16.8483 8.35657 17.2501 6.63184 17.2501C4.90691 17.2501 3.38191 16.8484 2.31445 16.2384C1.22592 15.6163 0.75 14.8712 0.75 14.2101C0.750197 13.549 1.226 12.8037 2.31445 12.1818C3.38191 11.5718 4.907 11.171 6.63184 11.171Z" stroke="#F05A7E" stroke-width="1.5"/>
<path d="M15.1578 11.3684C16.8198 11.7328 17.9999 12.6558 17.9999 13.7368C17.9999 14.712 17.0396 15.5585 15.6315 15.9825" stroke="#F05A7E" stroke-width="1.5" stroke-linecap="round"/>
</svg>
