<svg width="17" height="16" viewBox="0 0 17 16" fill="none" xmlns="http://www.w3.org/2000/svg">
<g clip-path="url(#clip0_2122_2297)">
<path d="M12.2741 1.99999C12.4514 1.8249 12.6619 1.686 12.8936 1.59124C13.1252 1.49648 13.3735 1.44771 13.6243 1.44771C13.875 1.44771 14.1233 1.49648 14.355 1.59124C14.5866 1.686 14.7971 1.8249 14.9744 1.99999C15.1518 2.17509 15.2924 2.38296 15.3884 2.61173C15.4843 2.84051 15.5337 3.0857 15.5337 3.33333C15.5337 3.58095 15.4843 3.82615 15.3884 4.05492C15.2924 4.28369 15.1518 4.49156 14.9744 4.66666L5.86088 13.6667L2.14795 14.6667L3.16057 11L12.2741 1.99999Z" stroke="#F05A7E" stroke-width="1.5" stroke-linecap="round" stroke-linejoin="round"/>
</g>
<defs>
<clipPath id="clip0_2122_2297">
<rect width="16.2019" height="16" fill="white" transform="translate(0.797852)"/>
</clipPath>
</defs>
</svg>
