<svg width="18" height="18" viewBox="0 0 18 18" fill="none" xmlns="http://www.w3.org/2000/svg">
<g clip-path="url(#clip0_2122_1501)">
<path d="M2.25 7.49997C2.25 4.67154 2.25 3.25733 3.12868 2.37865C4.00736 1.49997 5.42157 1.49997 8.25 1.49997H9.75C12.5784 1.49997 13.9926 1.49997 14.8713 2.37865C15.75 3.25733 15.75 4.67154 15.75 7.49997V10.5C15.75 13.3284 15.75 14.7426 14.8713 15.6213C13.9926 16.5 12.5784 16.5 9.75 16.5H8.25C5.42157 16.5 4.00736 16.5 3.12868 15.6213C2.25 14.7426 2.25 13.3284 2.25 10.5V7.49997Z" stroke="#F05A7E" stroke-width="1.5"/>
<path d="M6 8.99997H12" stroke="#F05A7E" stroke-width="1.5" stroke-linecap="round"/>
<path d="M6 5.99997H12" stroke="#F05A7E" stroke-width="1.5" stroke-linecap="round"/>
<path d="M6 12H9.75" stroke="#F05A7E" stroke-width="1.5" stroke-linecap="round"/>
</g>
<defs>
<clipPath id="clip0_2122_1501">
<rect y="-3.05176e-05" width="18" height="18" rx="5" fill="white"/>
</clipPath>
</defs>
</svg>
