<svg width="18" height="18" viewBox="0 0 18 18" fill="none" xmlns="http://www.w3.org/2000/svg">
<mask id="path-1-inside-1_2063_2378" fill="white">
<path d="M10.4659 16.6247L9.97799 17.449C9.54314 18.1836 8.45682 18.1836 8.02197 17.449L7.53409 16.6247C7.15565 15.9853 6.96644 15.6657 6.66251 15.4889C6.35858 15.3121 5.97593 15.3055 5.21062 15.2924C4.0808 15.2729 3.3722 15.2037 2.77792 14.9575C1.6753 14.5008 0.799265 13.6247 0.342542 12.5221C0 11.6952 0 10.6468 0 8.55005V7.65005C0 4.70396 0 3.23091 0.663119 2.1488C1.03417 1.5433 1.54326 1.03422 2.14876 0.663165C3.23087 4.57764e-05 4.70391 4.57764e-05 7.65 4.57764e-05H10.35C13.2961 4.57764e-05 14.7691 4.57764e-05 15.8512 0.663165C16.4567 1.03422 16.9658 1.5433 17.3369 2.1488C18 3.23091 18 4.70396 18 7.65005V8.55005C18 10.6468 18 11.6952 17.6575 12.5221C17.2007 13.6247 16.3247 14.5008 15.2221 14.9575C14.6278 15.2037 13.9192 15.2729 12.7893 15.2924C12.024 15.3055 11.6414 15.3121 11.3375 15.4889C11.0335 15.6657 10.8443 15.9853 10.4659 16.6247Z"/>
</mask>
<path d="M9.97799 17.449L11.2688 18.213L9.97799 17.449ZM10.4659 16.6247L9.17505 15.8607L10.4659 16.6247ZM7.53409 16.6247L6.24326 17.3887L6.24326 17.3887L7.53409 16.6247ZM8.02197 17.449L9.3128 16.6849L8.02197 17.449ZM0.342542 12.5221L1.72836 11.9481H1.72836L0.342542 12.5221ZM5.21062 15.2924L5.18478 16.7921L5.21062 15.2924ZM2.77792 14.9575L2.2039 16.3433L2.2039 16.3433L2.77792 14.9575ZM17.6575 12.5221L19.0433 13.0961L19.0433 13.0961L17.6575 12.5221ZM12.7893 15.2924L12.7635 13.7926H12.7635L12.7893 15.2924ZM15.2221 14.9575L15.7961 16.3433H15.7961L15.2221 14.9575ZM15.8512 0.663165L15.0675 1.94213L15.8512 0.663165ZM17.3369 2.1488L18.6158 1.36505L18.6158 1.36505L17.3369 2.1488ZM2.14876 0.663165L1.36501 -0.615795V-0.615795L2.14876 0.663165ZM0.663119 2.1488L-0.615841 1.36505V1.36505L0.663119 2.1488ZM6.66251 15.4889L7.41666 14.1923L7.41665 14.1923L6.66251 15.4889ZM11.2688 18.213L11.7567 17.3887L9.17505 15.8607L8.68716 16.6849L11.2688 18.213ZM6.24326 17.3887L6.73115 18.213L9.3128 16.6849L8.82491 15.8607L6.24326 17.3887ZM8.68716 16.6849C8.76545 16.5526 8.90268 16.5 8.99998 16.5C9.09728 16.5 9.23451 16.5526 9.3128 16.6849L6.73115 18.213C7.74681 19.929 10.2531 19.929 11.2688 18.213L8.68716 16.6849ZM7.65 1.50005H10.35V-1.49995H7.65V1.50005ZM16.5 7.65005V8.55005H19.5V7.65005H16.5ZM1.5 8.55005V7.65005H-1.5V8.55005H1.5ZM-1.5 8.55005C-1.5 9.57789 -1.50081 10.4239 -1.4537 11.1144C-1.40567 11.8183 -1.30287 12.4694 -1.04328 13.0961L1.72836 11.9481C1.64542 11.7478 1.57695 11.4613 1.53934 10.9101C1.50081 10.3455 1.5 9.61894 1.5 8.55005H-1.5ZM5.23646 13.7926C4.10648 13.7731 3.65689 13.698 3.35195 13.5717L2.2039 16.3433C3.08751 16.7093 4.05511 16.7727 5.18478 16.7921L5.23646 13.7926ZM-1.04328 13.0961C-0.434313 14.5663 0.733731 15.7344 2.2039 16.3433L3.35195 13.5717C2.61687 13.2672 2.03284 12.6832 1.72836 11.9481L-1.04328 13.0961ZM16.5 8.55005C16.5 9.61894 16.4992 10.3455 16.4607 10.9101C16.4231 11.4613 16.3546 11.7478 16.2716 11.9481L19.0433 13.0961C19.3029 12.4694 19.4057 11.8183 19.4537 11.1144C19.5008 10.4239 19.5 9.57789 19.5 8.55005H16.5ZM12.8152 16.7921C13.9449 16.7727 14.9125 16.7093 15.7961 16.3433L14.6481 13.5717C14.3431 13.698 13.8935 13.7731 12.7635 13.7926L12.8152 16.7921ZM16.2716 11.9481C15.9672 12.6832 15.3831 13.2672 14.648 13.5717L15.7961 16.3433C17.2663 15.7344 18.4343 14.5663 19.0433 13.0961L16.2716 11.9481ZM10.35 1.50005C11.8521 1.50005 12.8733 1.50163 13.6576 1.5762C14.4196 1.64865 14.8017 1.77927 15.0675 1.94213L16.635 -0.615795C15.8186 -1.11606 14.9232 -1.317 13.9416 -1.41033C12.9823 -1.50154 11.794 -1.49995 10.35 -1.49995V1.50005ZM19.5 7.65005C19.5 6.20605 19.5016 5.01771 19.4104 4.05845C19.317 3.07687 19.1161 2.18141 18.6158 1.36505L16.0579 2.93255C16.2208 3.19831 16.3514 3.58043 16.4238 4.34241C16.4984 5.12672 16.5 6.14796 16.5 7.65005H19.5ZM15.0675 1.94213C15.4712 2.18949 15.8106 2.52888 16.0579 2.93255L18.6158 1.36505C18.1211 0.557722 17.4423 -0.12106 16.635 -0.615795L15.0675 1.94213ZM7.65 -1.49995C6.206 -1.49995 5.01767 -1.50154 4.05841 -1.41033C3.07682 -1.317 2.18136 -1.11606 1.36501 -0.615795L2.9325 1.94213C3.19826 1.77927 3.58038 1.64865 4.34237 1.5762C5.12668 1.50163 6.14791 1.50005 7.65 1.50005V-1.49995ZM1.5 7.65005C1.5 6.14796 1.50158 5.12672 1.57616 4.34241C1.64861 3.58043 1.77922 3.19831 1.94208 2.93255L-0.615841 1.36505C-1.1161 2.18141 -1.31705 3.07687 -1.41038 4.05845C-1.50158 5.01771 -1.5 6.20605 -1.5 7.65005H1.5ZM1.36501 -0.615795C0.557676 -0.121061 -0.121107 0.557721 -0.615841 1.36505L1.94208 2.93255C2.18945 2.52888 2.52884 2.18949 2.9325 1.94213L1.36501 -0.615795ZM8.82491 15.8607C8.65011 15.5653 8.4671 15.253 8.28257 14.9998C8.07957 14.7213 7.8115 14.4219 7.41666 14.1923L5.90837 16.7855C5.81745 16.7327 5.79595 16.6815 5.85816 16.7668C5.89203 16.8133 5.93784 16.8821 6.00459 16.9903C6.07147 17.0986 6.1466 17.2254 6.24326 17.3887L8.82491 15.8607ZM5.18478 16.7921C5.38003 16.7955 5.53274 16.7982 5.66467 16.8028C5.79647 16.8075 5.88339 16.8134 5.9445 16.8202C6.06043 16.833 6.00423 16.8413 5.90837 16.7855L7.41665 14.1923C7.01687 13.9597 6.61738 13.8763 6.27467 13.8384C5.95978 13.8035 5.59127 13.7987 5.23646 13.7926L5.18478 16.7921ZM11.7567 17.3887C11.8534 17.2254 11.9285 17.0986 11.9954 16.9903C12.0621 16.8821 12.1079 16.8133 12.1418 16.7668C12.204 16.6815 12.1825 16.7327 12.0916 16.7855L10.5833 14.1923C10.1885 14.4219 9.92039 14.7213 9.7174 14.9998C9.53286 15.253 9.34985 15.5653 9.17505 15.8607L11.7567 17.3887ZM12.7635 13.7926C12.4087 13.7987 12.0402 13.8035 11.7253 13.8384C11.3826 13.8763 10.9831 13.9597 10.5833 14.1923L12.0916 16.7855C11.9957 16.8413 11.9395 16.833 12.0555 16.8202C12.1166 16.8134 12.2035 16.8075 12.3353 16.8028C12.4672 16.7982 12.6199 16.7955 12.8152 16.7921L12.7635 13.7926Z" fill="#F05A7E" mask="url(#path-1-inside-1_2063_2378)"/>
<path d="M6.30005 8.17205L8.10005 9.90005L11.7 6.30005" stroke="#F05A7E" stroke-width="1.5" stroke-linecap="round" stroke-linejoin="round"/>
</svg>
