<svg width="18" height="18" viewBox="0 0 18 18" fill="none" xmlns="http://www.w3.org/2000/svg">
<path d="M6.60144 4.99993C6.61113 3.25992 6.68829 2.31761 7.30299 1.70291C8.00592 0.999969 9.13728 0.999969 11.4 0.999969L12.2 0.999969C14.4627 0.999969 15.5941 0.999969 16.297 1.70291C16.9999 2.40584 16.9999 3.5372 16.9999 5.79992L16.9999 12.1998C16.9999 14.4626 16.9999 15.5939 16.297 16.2969C15.5941 16.9998 14.4627 16.9998 12.2 16.9998H11.4C9.13728 16.9998 8.00592 16.9998 7.30299 16.2969C6.68829 15.6822 6.61113 14.7398 6.60144 12.9998" stroke="#F05A7E" stroke-width="1.5" stroke-linecap="round"/>
<path d="M11.3999 8.99988L1.00001 8.99988M1.00001 8.99988L3.79998 6.59991M1.00001 8.99988L3.79998 11.3999" stroke="#F05A7E" stroke-width="1.5" stroke-linecap="round" stroke-linejoin="round"/>
</svg>
